<?xml version="1.0" encoding="utf-8"?>
<!-- Generator: Adobe Illustrator 16.0.0, SVG Export Plug-In . SVG Version: 6.00 Build 0)  -->
<!DOCTYPE svg PUBLIC "-//W3C//DTD SVG 1.1//EN" "http://www.w3.org/Graphics/SVG/1.1/DTD/svg11.dtd">
<svg version="1.1" id="Capa_1" xmlns="http://www.w3.org/2000/svg" xmlns:xlink="http://www.w3.org/1999/xlink" x="0px" y="0px"
	 width="841.89px" height="595.28px" viewBox="0 0 841.89 595.28" enable-background="new 0 0 841.89 595.28" xml:space="preserve">
<g>
	<path fill="#010202" d="M304.573,309.553L257.44,344.99c-2.617,1.969-6.859,1.969-9.476,0l-47.133-35.438l-4.196,3.155
		c-2.617,1.968-2.617,5.157,0,7.124l51.329,38.594c2.617,1.967,6.859,1.968,9.476,0l51.33-38.594c2.616-1.967,2.616-5.156,0-7.124
		L304.573,309.553z"/>
</g>
<g>
	<path fill="#010202" d="M304.573,290.916l-47.133,35.439c-2.617,1.967-6.859,1.967-9.476,0l-47.133-35.439l-4.196,3.156
		c-2.617,1.967-2.617,5.156,0,7.125l51.329,38.592c2.617,1.968,6.859,1.968,9.476,0l51.33-38.592c2.616-1.969,2.616-5.158,0-7.125
		L304.573,290.916z"/>
</g>
<path fill="#010202" d="M308.769,275.211l-51.329-38.593c-2.617-1.968-6.859-1.968-9.477,0l-51.329,38.593
	c-2.617,1.968-2.617,5.157,0,7.125l51.329,38.593c2.617,1.968,6.859,1.968,9.477,0l51.329-38.593
	C311.385,280.369,311.385,277.178,308.769,275.211z M217.597,286.296c-4.155,0-7.522-3.368-7.522-7.522s3.368-7.522,7.522-7.522
	c4.154,0,7.522,3.368,7.522,7.522S221.751,286.296,217.597,286.296z M252.701,311.371c-4.154,0-7.522-3.368-7.522-7.523
	c0-4.154,3.368-7.521,7.522-7.521c4.155,0,7.522,3.367,7.522,7.521C260.224,308.003,256.856,311.371,252.701,311.371z
	 M252.701,286.296c-4.154,0-7.522-3.368-7.522-7.522s3.368-7.522,7.522-7.522c4.155,0,7.522,3.368,7.522,7.522
	S256.856,286.296,252.701,286.296z M252.701,261.723c-4.154,0-7.522-3.368-7.522-7.522c0-4.155,3.368-7.522,7.522-7.522
	c4.155,0,7.522,3.367,7.522,7.522C260.224,258.354,256.856,261.723,252.701,261.723z M287.305,286.296
	c-4.155,0-7.522-3.368-7.522-7.522s3.368-7.522,7.522-7.522c4.154,0,7.522,3.368,7.522,7.522S291.459,286.296,287.305,286.296z"/>
<g>
	<path fill="#010202" d="M413.305,296.396c0.288,16.918-10.037,34.027-33.454,34.027c-8.22,0-18.065,0-26.286,0v-66.908
		c8.22,0,18.065,0,26.286,0C402.791,263.516,413.018,279.859,413.305,296.396z M366.086,318.284h13.764
		c15.198,0,21.22-11.087,20.933-21.983c-0.287-10.419-6.404-20.838-20.933-20.838h-13.764V318.284z"/>
	<path fill="#010202" d="M433.467,270.015c0,9.08-13.765,9.08-13.765,0C419.702,260.934,433.467,260.934,433.467,270.015z
		 M420.753,283.109v47.314h11.662v-47.314H420.753z"/>
	<path fill="#010202" d="M483.357,324.402c-5.447,5.353-11.184,7.455-18.161,7.455c-13.669,0-25.042-8.22-25.042-24.947
		c0-16.727,11.373-24.947,25.042-24.947c6.692,0,11.854,1.912,17.015,6.979l-7.359,7.742c-2.773-2.486-6.213-3.729-9.463-3.729
		c-7.838,0-13.573,5.734-13.573,13.955c0,8.984,6.118,13.764,13.381,13.764c3.729,0,7.457-1.051,10.325-3.918L483.357,324.402z"/>
	<path fill="#010202" d="M500.367,311.021c0.765,5.831,5.832,10.036,14.051,10.036c4.301,0,9.941-1.625,12.617-4.396l7.455,7.359
		c-4.97,5.162-13.095,7.646-20.264,7.646c-16.25,0-25.903-10.035-25.903-25.139c0-14.337,9.749-24.66,25.044-24.66
		c15.771,0,25.615,9.75,23.799,29.153H500.367z M525.984,301.366c-0.766-6.117-5.545-9.176-12.234-9.176
		c-6.311,0-11.472,3.059-13.192,9.176H525.984z"/>
	<path fill="#010202" d="M595.467,330.424h-6.498l-35.271-32.977v32.882h-5.16v-66.813h5.16v30.49l32.498-30.49h6.215v0.477
		l-33.646,31.543l36.703,34.507V330.424z"/>
	<path fill="#010202" d="M607.602,267.816c0,4.971-7.551,4.971-7.551,0S607.602,262.846,607.602,267.816z M601.389,283.014v47.41
		h4.684v-47.41H601.389z"/>
	<path fill="#010202" d="M630.252,268.964v14.241h16.059v3.92h-16.059v28.77c0,6.404,1.34,10.896,8.699,10.896
		c2.293,0,4.875-0.764,7.264-1.911l1.625,3.823c-2.963,1.435-5.926,2.39-8.889,2.39c-10.037,0-13.287-5.927-13.287-15.198v-28.77
		h-10.035v-3.92h10.035v-13.764L630.252,268.964z"/>
</g>
</svg>
